HIERARCHY
ROOT Hips
{
	OFFSET -0.001795 -0.223333 0.028219
	CHANNELS 6 Xposition Yposition Zposition Zrotation Yrotation Xrotation 
	JOINT LeftUpLeg
	{
		OFFSET 0.069520 -0.091406 -0.006815
		CHANNELS 3 Zrotation Yrotation Xrotation
		JOINT LeftLeg
		{
			OFFSET 0.034277 -0.375199 -0.004496
			CHANNELS 3 Zrotation Yrotation Xrotation
			JOINT LeftFoot
			{
				OFFSET -0.013596 -0.397961 -0.043693
				CHANNELS 3 Zrotation Yrotation Xrotation
				JOINT LeftToe
				{
					OFFSET 0.026358 -0.055791 0.119288
					CHANNELS 3 Zrotation Yrotation Xrotation
					End Site
					{
						OFFSET 0.000000 0.000000 0.000000
					}
				}
			}
		}
	}
	JOINT RightUpLeg
	{
		OFFSET -0.067670 -0.090522 -0.004320
		CHANNELS 3 Zrotation Yrotation Xrotation
		JOINT RightLeg
		{
			OFFSET -0.038290 -0.382569 -0.008850
			CHANNELS 3 Zrotation Yrotation Xrotation
			JOINT RightFoot
			{
				OFFSET 0.015774 -0.398415 -0.042312
				CHANNELS 3 Zrotation Yrotation Xrotation
				JOINT RightToe
				{
					OFFSET -0.025372 -0.048144 0.123348
					CHANNELS 3 Zrotation Yrotation Xrotation
					End Site
					{
						OFFSET 0.000000 0.000000 0.000000
					}
				}
			}
		}
	}
	JOINT Spine
	{
		OFFSET -0.002533 0.108963 -0.026696
		CHANNELS 3 Zrotation Yrotation Xrotation
		JOINT Spine1
		{
			OFFSET 0.005487 0.135180 0.001092
			CHANNELS 3 Zrotation Yrotation Xrotation
			JOINT Spine2
			{
				OFFSET 0.001457 0.052922 0.025425
				CHANNELS 3 Zrotation Yrotation Xrotation
				JOINT Neck
				{
					OFFSET -0.002778 0.213870 -0.042857
					CHANNELS 3 Zrotation Yrotation Xrotation
					JOINT Head
					{
						OFFSET 0.005152 0.064970 0.051349
						CHANNELS 3 Zrotation Yrotation Xrotation
						End Site
						{
							OFFSET 0.000000 0.000000 0.000000
						}
					}
				}
				JOINT LeftShoulder
				{
					OFFSET 0.078845 0.121749 -0.034090
					CHANNELS 3 Zrotation Yrotation Xrotation
					JOINT LeftArm
					{
						OFFSET 0.090977 0.030469 -0.008868
						CHANNELS 3 Zrotation Yrotation Xrotation
						JOINT LeftForeArm
						{
							OFFSET 0.259612 -0.012772 -0.027456
							CHANNELS 3 Zrotation Yrotation Xrotation
							JOINT LeftHand
							{
								OFFSET 0.249234 0.008986 -0.001171
								CHANNELS 3 Zrotation Yrotation Xrotation
								End Site
								{
									OFFSET 0.000000 0.000000 0.000000
								}
							}
						}
					}
				}
				JOINT RightShoulder
				{
					OFFSET -0.081759 0.118833 -0.038615
					CHANNELS 3 Zrotation Yrotation Xrotation
					JOINT RightArm
					{
						OFFSET -0.096012 0.032551 -0.009143
						CHANNELS 3 Zrotation Yrotation Xrotation
						JOINT RightForeArm
						{
							OFFSET -0.253742 -0.013329 -0.021401
							CHANNELS 3 Zrotation Yrotation Xrotation
							JOINT RightHand
							{
								OFFSET -0.255298 0.007772 -0.005559
								CHANNELS 3 Zrotation Yrotation Xrotation
								End Site
								{
									OFFSET 0.000000 0.000000 0.000000
								}
							}
						}
					}
				}
			}
		}
	}
}
MOTION
Frames: 10
Frame Time: 0.050000
1.502268 0.780899 -1.222319 5.584575 -23.035882 6.991391 1.719903 2.344084 -55.594726 -0.059775 4.562888 66.628998 3.636050 4.956208 -9.020224 0.000000 0.000000 0.000000 -40.004768 -1.818914 -43.112919 47.619956 -16.731904 39.886417 -39.795265 -62.663868 20.226932 0.000000 0.000000 0.000000 14.088774 -3.191324 53.515283 -12.292005 3.201562 -23.707291 3.267304 17.218387 30.015536 27.435468 -14.718340 -24.305306 0.000000 0.000000 0.000000 -12.498955 -21.145557 7.793334 -23.884243 -23.612911 -0.299076 124.816425 -34.535195 -59.902472 0.000000 0.000000 0.000000 -10.380510 16.044423 3.479847 -8.210438 28.618748 -2.537793 -60.662688 13.555154 -5.237573 0.000000 0.000000 0.000000 
1.501394 0.781872 -1.223534 5.626319 -22.243901 7.197147 1.787045 2.102020 -55.401447 -0.509076 4.648727 66.015954 4.102095 6.003400 -9.407456 0.000000 0.000000 0.000000 -40.083044 -2.055447 -42.895767 47.302861 -16.781518 39.751877 -38.165365 -62.285244 17.965667 0.000000 0.000000 0.000000 13.454047 -3.120857 53.482041 -12.112196 3.143463 -23.938529 3.791258 17.808150 30.911832 27.135292 -14.730105 -23.655571 0.000000 0.000000 0.000000 -12.444511 -20.823816 7.489902 -24.064350 -23.536780 -0.332601 126.139704 -35.381189 -62.887927 0.000000 0.000000 0.000000 -11.138492 15.949807 3.217271 -7.669936 28.544472 -2.386185 -62.695170 14.409674 -5.691454 0.000000 0.000000 0.000000 
1.499397 0.782850 -1.224425 5.707114 -21.562296 7.033978 2.205383 1.990322 -54.442856 -1.600436 5.368143 65.119180 4.760544 7.524925 -9.936955 0.000000 0.000000 0.000000 -39.471064 -2.135129 -42.690533 46.541189 -16.782546 40.403219 -37.002606 -62.509901 15.508676 0.000000 0.000000 0.000000 12.643768 -2.919100 53.612272 -11.692936 3.075910 -23.428713 3.842590 18.356755 30.961115 27.106390 -15.081041 -22.559936 0.000000 0.000000 0.000000 -13.004830 -20.439070 7.157548 -23.835182 -22.275508 -0.475165 127.850257 -36.330135 -66.611767 0.000000 0.000000 0.000000 -10.230117 15.776319 3.325406 -7.328227 28.316362 -2.291526 -65.048851 16.037015 -6.771718 0.000000 0.000000 0.000000 
1.495819 0.783636 -1.225030 5.697759 -20.644759 6.862259 2.771764 1.938037 -53.864086 -2.419701 5.782537 64.724713 5.212676 8.687887 -9.792802 0.000000 0.000000 0.000000 -39.074500 -2.297011 -42.221210 45.909521 -16.921182 41.064261 -35.363991 -61.764641 13.521158 0.000000 0.000000 0.000000 11.920324 -2.816369 53.623949 -11.348018 3.012643 -23.346579 4.182663 18.588208 31.783961 26.909380 -15.033394 -22.308721 0.000000 0.000000 0.000000 -12.518688 -20.108996 6.887743 -23.693847 -21.922898 -0.566059 128.833189 -35.850035 -67.346018 0.000000 0.000000 0.000000 -9.745704 15.924533 3.421734 -6.773131 27.425681 -2.109842 -67.577161 17.334242 -7.812214 0.000000 0.000000 0.000000 
1.491034 0.785172 -1.225531 5.524160 -19.982582 6.811530 3.585438 2.065438 -53.022642 -3.239328 6.224605 63.889451 5.747386 10.080797 -9.531840 0.000000 0.000000 0.000000 -38.230684 -2.302148 -41.958352 44.820454 -16.695646 41.639306 -34.015360 -61.098552 11.925619 0.000000 0.000000 0.000000 11.079326 -2.588654 53.906292 -10.955355 2.921981 -23.214707 4.487022 19.084250 31.835147 27.184093 -15.694349 -21.134839 0.000000 0.000000 0.000000 -12.751185 -19.933386 6.646793 -22.610995 -20.719817 -0.723316 129.750823 -35.336082 -68.131663 0.000000 0.000000 0.000000 -8.139998 15.522580 3.658895 -6.373635 26.913701 -2.023202 -70.436251 19.285806 -9.429180 0.000000 0.000000 0.000000 
1.485616 0.786482 -1.225886 5.310215 -19.058356 6.688208 4.210653 2.045430 -52.388005 -3.749331 6.362333 63.492276 6.090762 10.954862 -9.451469 0.000000 0.000000 0.000000 -37.681381 -2.390317 -41.302762 43.975080 -16.674337 42.275469 -32.495266 -60.039942 10.428230 0.000000 0.000000 0.000000 10.590613 -2.596261 54.204333 -10.687886 2.845670 -23.640637 4.689916 18.926429 32.500655 26.569605 -15.788868 -19.872595 0.000000 0.000000 0.000000 -12.235817 -19.189724 6.266052 -21.915692 -20.842009 -0.774300 130.443861 -35.283188 -69.099642 0.000000 0.000000 0.000000 -7.315254 15.310809 3.776616 -5.678996 26.804819 -1.965794 -72.362377 19.835235 -10.102638 0.000000 0.000000 0.000000 
1.480255 0.788396 -1.225892 5.198277 -18.245518 6.825354 4.875140 2.066274 -51.640459 -4.368176 6.564953 62.701184 6.287632 11.498220 -9.197858 0.000000 0.000000 0.000000 -36.875198 -2.454187 -41.238113 42.811289 -16.454350 42.806903 -31.413620 -59.325631 9.263663 0.000000 0.000000 0.000000 10.026254 -2.548463 54.303956 -10.256687 2.747195 -23.558501 4.854688 19.128763 32.197814 26.683870 -16.379430 -18.607816 0.000000 0.000000 0.000000 -12.242110 -19.394930 6.247281 -20.827768 -20.476126 -0.808865 130.714533 -35.586804 -70.228780 0.000000 0.000000 0.000000 -5.803369 15.158185 4.116911 -5.440210 27.142669 -2.012247 -73.797693 20.004651 -10.410846 0.000000 0.000000 0.000000 
1.475287 0.789725 -1.225402 5.295805 -17.558987 6.717994 5.538588 2.121356 -50.938952 -4.985987 6.868093 62.395284 6.631629 12.384046 -8.927102 0.000000 0.000000 0.000000 -36.475331 -2.586779 -41.290039 42.133445 -16.501495 43.447284 -30.262586 -58.470198 8.122473 0.000000 0.000000 0.000000 10.120069 -2.787139 54.496336 -10.486230 2.797705 -23.877287 4.579239 18.284391 32.354117 26.039695 -16.791444 -16.734034 0.000000 0.000000 0.000000 -11.668727 -19.294584 6.326122 -20.064369 -20.244483 -0.900122 130.469886 -36.012700 -70.487466 0.000000 0.000000 0.000000 -4.573679 15.570870 4.566071 -5.660258 27.508392 -2.150404 -74.503382 19.520621 -10.484460 0.000000 0.000000 0.000000 
1.470614 0.790783 -1.224611 5.447028 -16.914821 6.988174 5.926009 2.096696 -50.576996 -5.441311 6.962766 61.724769 6.817150 12.937977 -8.213027 0.000000 0.000000 0.000000 -36.419170 -2.750333 -41.289398 41.349024 -16.447369 43.867975 -29.564081 -57.723770 7.730819 0.000000 0.000000 0.000000 10.100983 -2.966313 54.367702 -10.191345 2.735326 -23.763552 4.235965 17.949124 31.927583 25.679326 -16.747688 -16.083940 0.000000 0.000000 0.000000 -11.181639 -19.320452 6.352746 -19.804925 -19.978685 -0.923893 131.297908 -37.084553 -73.110673 0.000000 0.000000 0.000000 -4.002172 15.602453 4.755026 -5.402154 28.429943 -2.257146 -74.406492 18.332551 -9.572127 0.000000 0.000000 0.000000 
1.466011 0.791839 -1.223790 5.605618 -16.559666 7.089949 6.243237 2.134856 -50.431068 -5.336887 6.801491 61.820686 6.628448 12.530449 -7.936986 0.000000 0.000000 0.000000 -36.539962 -2.906850 -41.484593 40.867179 -16.550912 44.494262 -28.109011 -56.287156 6.750643 0.000000 0.000000 0.000000 10.281301 -3.164415 54.210002 -10.222245 2.733983 -23.955348 3.831739 17.452402 31.879486 25.640323 -17.139407 -15.295929 0.000000 0.000000 0.000000 -10.797052 -19.504369 6.515515 -19.344092 -20.000970 -0.964666 132.615881 -38.260788 -76.361136 0.000000 0.000000 0.000000 -2.675536 16.142615 5.279090 -5.863022 29.323461 -2.484878 -74.343997 16.970780 -8.783484 0.000000 0.000000 0.000000 
